# Blender 4.0.1
# www.blender.org
o Sphere
v 0.000000 0.831470 -0.555570
v 0.000000 0.555570 -0.831470
v 0.000000 0.195090 -0.980785
v 0.000000 0.000000 -1.000000
v 0.000000 -0.195090 -0.980785
v 0.000000 -0.555570 -0.831470
v 0.038060 0.980785 -0.191342
v 0.074658 0.923880 -0.375330
v 0.108386 0.831470 -0.544895
v 0.137950 0.707107 -0.693520
v 0.162212 0.555570 -0.815493
v 0.180240 0.382683 -0.906127
v 0.191342 0.195090 -0.961940
v 0.195090 0.000000 -0.980785
v 0.191342 -0.195090 -0.961940
v 0.180240 -0.382683 -0.906127
v 0.162212 -0.555570 -0.815493
v 0.137950 -0.707107 -0.693520
v 0.108386 -0.831470 -0.544895
v 0.074658 -0.923880 -0.375330
v 0.038060 -0.980785 -0.191342
v 0.074658 0.980785 -0.180240
v 0.146447 0.923880 -0.353553
v 0.212608 0.831470 -0.513280
v 0.270598 0.707107 -0.653281
v 0.318190 0.555570 -0.768178
v 0.353553 0.382683 -0.853553
v 0.375330 0.195090 -0.906127
v 0.382683 0.000000 -0.923879
v 0.375330 -0.195090 -0.906127
v 0.353553 -0.382683 -0.853553
v 0.318190 -0.555570 -0.768178
v 0.270598 -0.707107 -0.653281
v 0.212608 -0.831470 -0.513280
v 0.146447 -0.923880 -0.353553
v 0.074658 -0.980785 -0.180240
v 0.108386 0.980785 -0.162212
v 0.212608 0.923880 -0.318190
v 0.308658 0.831470 -0.461940
v 0.392847 0.707107 -0.587938
v 0.461940 0.555570 -0.691342
v 0.513280 0.382683 -0.768178
v 0.544895 0.195090 -0.815493
v 0.555570 0.000000 -0.831469
v 0.544895 -0.195090 -0.815493
v 0.513280 -0.382683 -0.768178
v 0.461940 -0.555570 -0.691342
v 0.392847 -0.707107 -0.587938
v 0.308658 -0.831470 -0.461940
v 0.212608 -0.923880 -0.318190
v 0.108386 -0.980785 -0.162212
v 0.137950 0.980785 -0.137950
v 0.270598 0.923880 -0.270598
v 0.392847 0.831470 -0.392847
v 0.500000 0.707107 -0.500000
v 0.587938 0.555570 -0.587938
v 0.653281 0.382683 -0.653281
v 0.693520 0.195090 -0.693520
v 0.707107 0.000000 -0.707107
v 0.693520 -0.195090 -0.693520
v 0.653281 -0.382683 -0.653281
v 0.587938 -0.555570 -0.587938
v 0.500000 -0.707107 -0.500000
v 0.392847 -0.831470 -0.392847
v 0.270598 -0.923880 -0.270598
v 0.137950 -0.980785 -0.137950
v 0.162212 0.980785 -0.108386
v 0.318190 0.923880 -0.212608
v 0.461940 0.831470 -0.308658
v 0.587938 0.707107 -0.392847
v 0.691342 0.555570 -0.461940
v 0.768178 0.382683 -0.513280
v 0.815493 0.195090 -0.544895
v 0.831470 0.000000 -0.555570
v 0.815493 -0.195090 -0.544895
v 0.768178 -0.382683 -0.513280
v 0.691342 -0.555570 -0.461940
v 0.587938 -0.707107 -0.392847
v 0.461940 -0.831470 -0.308658
v 0.318190 -0.923880 -0.212608
v 0.162212 -0.980785 -0.108386
v 0.000000 1.000000 0.000000
v 0.180240 0.980785 -0.074658
v 0.353553 0.923880 -0.146447
v 0.513280 0.831470 -0.212607
v 0.653281 0.707107 -0.270598
v 0.768178 0.555570 -0.318190
v 0.853553 0.382683 -0.353553
v 0.906127 0.195090 -0.375330
v 0.923879 0.000000 -0.382683
v 0.906127 -0.195090 -0.375330
v 0.853553 -0.382683 -0.353553
v 0.768178 -0.555570 -0.318190
v 0.653281 -0.707107 -0.270598
v 0.513280 -0.831470 -0.212607
v 0.353553 -0.923880 -0.146447
v 0.180240 -0.980785 -0.074658
v 0.191342 0.980785 -0.038060
v 0.375330 0.923880 -0.074658
v 0.544895 0.831470 -0.108386
v 0.693520 0.707107 -0.137950
v 0.815493 0.555570 -0.162212
v 0.906127 0.382683 -0.180240
v 0.961940 0.195090 -0.191342
v 0.980785 0.000000 -0.195090
v 0.961940 -0.195090 -0.191342
v 0.906127 -0.382683 -0.180240
v 0.815493 -0.555570 -0.162212
v 0.693520 -0.707107 -0.137950
v 0.544895 -0.831470 -0.108386
v 0.375330 -0.923880 -0.074658
v 0.191342 -0.980785 -0.038060
v 0.195090 0.980785 0.000000
v 0.382683 0.923880 0.000000
v 0.555570 0.831470 0.000000
v 0.707107 0.707107 -0.000000
v 0.831469 0.555570 0.000000
v 0.923879 0.382683 -0.000000
v 0.980785 0.195090 0.000000
v 1.000000 0.000000 0.000000
v 0.980785 -0.195090 0.000000
v 0.923879 -0.382683 -0.000000
v 0.831469 -0.555570 0.000000
v 0.707107 -0.707107 -0.000000
v 0.555570 -0.831470 0.000000
v 0.382683 -0.923880 0.000000
v 0.195090 -0.980785 0.000000
v 0.191342 0.980785 0.038060
v 0.375330 0.923880 0.074658
v 0.544895 0.831470 0.108386
v 0.693520 0.707107 0.137950
v 0.815493 0.555570 0.162212
v 0.906127 0.382683 0.180240
v 0.961940 0.195090 0.191342
v 0.980785 0.000000 0.195090
v 0.961940 -0.195090 0.191342
v 0.906127 -0.382683 0.180240
v 0.815493 -0.555570 0.162212
v 0.693520 -0.707107 0.137950
v 0.544895 -0.831470 0.108386
v 0.375330 -0.923880 0.074658
v 0.191342 -0.980785 0.038060
v 0.180240 0.980785 0.074658
v 0.353553 0.923880 0.146447
v 0.513280 0.831470 0.212608
v 0.653281 0.707107 0.270598
v 0.768178 0.555570 0.318190
v 0.853553 0.382683 0.353553
v 0.906127 0.195090 0.375330
v 0.923879 0.000000 0.382683
v 0.906127 -0.195090 0.375330
v 0.853553 -0.382683 0.353553
v 0.768178 -0.555570 0.318190
v 0.653281 -0.707107 0.270598
v 0.513280 -0.831470 0.212608
v 0.353553 -0.923880 0.146447
v 0.180240 -0.980785 0.074658
v 0.162212 0.980785 0.108386
v 0.318190 0.923880 0.212608
v 0.461940 0.831470 0.308658
v 0.587938 0.707107 0.392847
v 0.691341 0.555570 0.461940
v 0.768178 0.382683 0.513280
v 0.815493 0.195090 0.544895
v 0.831469 0.000000 0.555570
v 0.815493 -0.195090 0.544895
v 0.768178 -0.382683 0.513280
v 0.691341 -0.555570 0.461940
v 0.587938 -0.707107 0.392847
v 0.461940 -0.831470 0.308658
v 0.318190 -0.923880 0.212608
v 0.162212 -0.980785 0.108386
v 0.137950 0.980785 0.137950
v 0.270598 0.923880 0.270598
v 0.392847 0.831470 0.392847
v 0.500000 0.707107 0.500000
v 0.587938 0.555570 0.587938
v 0.653281 0.382683 0.653281
v 0.693520 0.195090 0.693520
v 0.707106 0.000000 0.707107
v 0.693520 -0.195090 0.693520
v 0.653281 -0.382683 0.653281
v 0.587938 -0.555570 0.587938
v 0.500000 -0.707107 0.500000
v 0.392847 -0.831470 0.392847
v 0.270598 -0.923880 0.270598
v 0.137950 -0.980785 0.137950
v 0.108386 0.980785 0.162212
v 0.212607 0.923880 0.318190
v 0.308658 0.831470 0.461940
v 0.392847 0.707107 0.587938
v 0.461940 0.555570 0.691342
v 0.513280 0.382683 0.768178
v 0.544895 0.195090 0.815493
v 0.555570 0.000000 0.831469
v 0.544895 -0.195090 0.815493
v 0.513280 -0.382683 0.768178
v 0.461940 -0.555570 0.691342
v 0.392847 -0.707107 0.587938
v 0.308658 -0.831470 0.461940
v 0.212607 -0.923880 0.318190
v 0.108386 -0.980785 0.162212
v 0.074658 0.980785 0.180240
v 0.146447 0.923880 0.353553
v 0.212607 0.831470 0.513280
v 0.270598 0.707107 0.653281
v 0.318189 0.555570 0.768178
v 0.353553 0.382683 0.853553
v 0.375330 0.195090 0.906127
v 0.382683 0.000000 0.923879
v 0.375330 -0.195090 0.906127
v 0.353553 -0.382683 0.853553
v 0.318189 -0.555570 0.768178
v 0.270598 -0.707107 0.653281
v 0.212607 -0.831470 0.513280
v 0.146447 -0.923880 0.353553
v 0.074658 -0.980785 0.180240
v 0.038060 0.980785 0.191342
v 0.074658 0.923880 0.375330
v 0.108386 0.831470 0.544895
v 0.137950 0.707107 0.693520
v 0.162212 0.555570 0.815493
v 0.180240 0.382683 0.906127
v 0.191342 0.195090 0.961939
v 0.195090 0.000000 0.980785
v 0.191342 -0.195090 0.961939
v 0.180240 -0.382683 0.906127
v 0.162212 -0.555570 0.815493
v 0.137950 -0.707107 0.693520
v 0.108386 -0.831470 0.544895
v 0.074658 -0.923880 0.375330
v 0.038060 -0.980785 0.191342
v -0.000000 0.980785 0.195090
v -0.000000 0.923880 0.382683
v -0.000000 0.831470 0.555570
v -0.000000 0.707107 0.707107
v -0.000000 0.555570 0.831469
v 0.000000 0.382683 0.923879
v -0.000000 0.195090 0.980785
v -0.000000 0.000000 0.999999
v -0.000000 -0.195090 0.980785
v 0.000000 -0.382683 0.923879
v -0.000000 -0.555570 0.831469
v -0.000000 -0.707107 0.707107
v -0.000000 -0.831470 0.555570
v -0.000000 -0.923880 0.382683
v -0.000000 -0.980785 0.195090
v -0.038060 0.980785 0.191342
v -0.074658 0.923880 0.375330
v -0.108386 0.831470 0.544895
v -0.137950 0.707107 0.693520
v -0.162212 0.555570 0.815493
v -0.180240 0.382683 0.906127
v -0.191342 0.195090 0.961939
v -0.195091 0.000000 0.980785
v -0.191342 -0.195090 0.961939
v -0.180240 -0.382683 0.906127
v -0.162212 -0.555570 0.815493
v -0.137950 -0.707107 0.693520
v -0.108386 -0.831470 0.544895
v -0.074658 -0.923880 0.375330
v -0.038060 -0.980785 0.191342
v -0.074658 0.980785 0.180240
v -0.146447 0.923880 0.353553
v -0.212608 0.831470 0.513280
v -0.270598 0.707107 0.653281
v -0.318190 0.555570 0.768177
v -0.353553 0.382683 0.853553
v -0.375330 0.195090 0.906127
v -0.382683 0.000000 0.923879
v -0.375330 -0.195090 0.906127
v -0.353553 -0.382683 0.853553
v -0.318190 -0.555570 0.768177
v -0.270598 -0.707107 0.653281
v -0.212608 -0.831470 0.513280
v -0.146447 -0.923880 0.353553
v -0.074658 -0.980785 0.180240
v -0.108386 0.980785 0.162212
v -0.212608 0.923880 0.318190
v -0.308658 0.831470 0.461939
v -0.392847 0.707107 0.587938
v -0.461940 0.555570 0.691341
v -0.513280 0.382683 0.768178
v -0.544895 0.195090 0.815493
v -0.555570 0.000000 0.831469
v -0.544895 -0.195090 0.815493
v -0.513280 -0.382683 0.768178
v -0.461940 -0.555570 0.691341
v -0.392847 -0.707107 0.587938
v -0.308658 -0.831470 0.461939
v -0.212608 -0.923880 0.318190
v -0.108386 -0.980785 0.162212
v -0.137950 0.980785 0.137950
v -0.270598 0.923880 0.270598
v -0.392847 0.831470 0.392847
v -0.500000 0.707107 0.500000
v -0.587938 0.555570 0.587937
v -0.653281 0.382683 0.653281
v -0.693520 0.195090 0.693520
v -0.707106 0.000000 0.707106
v -0.693520 -0.195090 0.693520
v -0.653281 -0.382683 0.653281
v -0.587938 -0.555570 0.587937
v -0.500000 -0.707107 0.500000
v -0.392847 -0.831470 0.392847
v -0.270598 -0.923880 0.270598
v -0.137950 -0.980785 0.137950
v 0.000000 -1.000000 0.000000
v -0.162212 0.980785 0.108386
v -0.318190 0.923880 0.212607
v -0.461940 0.831470 0.308658
v -0.587938 0.707107 0.392847
v -0.691341 0.555570 0.461939
v -0.768177 0.382683 0.513280
v -0.815493 0.195090 0.544895
v -0.831469 0.000000 0.555569
v -0.815493 -0.195090 0.544895
v -0.768177 -0.382683 0.513280
v -0.691341 -0.555570 0.461939
v -0.587938 -0.707107 0.392847
v -0.461940 -0.831470 0.308658
v -0.318190 -0.923880 0.212607
v -0.162212 -0.980785 0.108386
v -0.180240 0.980785 0.074658
v -0.353553 0.923880 0.146447
v -0.513280 0.831470 0.212607
v -0.653281 0.707107 0.270598
v -0.768177 0.555570 0.318189
v -0.853553 0.382683 0.353553
v -0.906127 0.195090 0.375330
v -0.923879 0.000000 0.382683
v -0.906127 -0.195090 0.375330
v -0.853553 -0.382683 0.353553
v -0.768177 -0.555570 0.318189
v -0.653281 -0.707107 0.270598
v -0.513280 -0.831470 0.212607
v -0.353553 -0.923880 0.146447
v -0.180240 -0.980785 0.074658
v -0.191342 0.980785 0.038060
v -0.375330 0.923880 0.074658
v -0.544895 0.831470 0.108386
v -0.693520 0.707107 0.137950
v -0.815493 0.555570 0.162211
v -0.906127 0.382683 0.180240
v -0.961939 0.195090 0.191341
v -0.980784 0.000000 0.195090
v -0.961939 -0.195090 0.191341
v -0.906127 -0.382683 0.180240
v -0.815493 -0.555570 0.162211
v -0.693520 -0.707107 0.137950
v -0.544895 -0.831470 0.108386
v -0.375330 -0.923880 0.074658
v -0.191342 -0.980785 0.038060
v -0.195090 0.980785 -0.000000
v -0.382683 0.923880 -0.000000
v -0.555570 0.831470 -0.000000
v -0.707107 0.707107 -0.000000
v -0.831469 0.555570 -0.000000
v -0.923879 0.382683 -0.000000
v -0.980785 0.195090 -0.000000
v -0.999999 0.000000 -0.000000
v -0.980785 -0.195090 -0.000000
v -0.923879 -0.382683 -0.000000
v -0.831469 -0.555570 -0.000000
v -0.707107 -0.707107 -0.000000
v -0.555570 -0.831470 -0.000000
v -0.382683 -0.923880 -0.000000
v -0.195090 -0.980785 -0.000000
v -0.191342 0.980785 -0.038060
v -0.375330 0.923880 -0.074658
v -0.544895 0.831470 -0.108386
v -0.693520 0.707107 -0.137950
v -0.815493 0.555570 -0.162212
v -0.906127 0.382683 -0.180240
v -0.961939 0.195090 -0.191342
v -0.980784 0.000000 -0.195091
v -0.961939 -0.195090 -0.191342
v -0.906127 -0.382683 -0.180240
v -0.815493 -0.555570 -0.162212
v -0.693520 -0.707107 -0.137950
v -0.544895 -0.831470 -0.108386
v -0.375330 -0.923880 -0.074658
v -0.191342 -0.980785 -0.038060
v -0.180240 0.980785 -0.074658
v -0.353553 0.923880 -0.146447
v -0.513279 0.831470 -0.212607
v -0.653281 0.707107 -0.270598
v -0.768177 0.555570 -0.318190
v -0.853553 0.382683 -0.353553
v -0.906127 0.195090 -0.375330
v -0.923878 0.000000 -0.382683
v -0.906127 -0.195090 -0.375330
v -0.853553 -0.382683 -0.353553
v -0.768177 -0.555570 -0.318190
v -0.653281 -0.707107 -0.270598
v -0.513279 -0.831470 -0.212607
v -0.353553 -0.923880 -0.146447
v -0.180240 -0.980785 -0.074658
v -0.162212 0.980785 -0.108386
v -0.318189 0.923880 -0.212607
v -0.461939 0.831470 -0.308658
v -0.587938 0.707107 -0.392847
v -0.691341 0.555570 -0.461940
v -0.768177 0.382683 -0.513280
v -0.815493 0.195090 -0.544895
v -0.831468 0.000000 -0.555570
v -0.815493 -0.195090 -0.544895
v -0.768177 -0.382683 -0.513280
v -0.691341 -0.555570 -0.461940
v -0.587938 -0.707107 -0.392847
v -0.461939 -0.831470 -0.308658
v -0.318189 -0.923880 -0.212607
v -0.162212 -0.980785 -0.108386
v -0.137950 0.980785 -0.137950
v -0.270598 0.923880 -0.270598
v -0.392847 0.831470 -0.392847
v -0.500000 0.707107 -0.500000
v -0.587937 0.555570 -0.587938
v -0.653281 0.382683 -0.653281
v -0.693519 0.195090 -0.693520
v -0.707106 0.000000 -0.707106
v -0.693519 -0.195090 -0.693520
v -0.653281 -0.382683 -0.653281
v -0.587937 -0.555570 -0.587938
v -0.500000 -0.707107 -0.500000
v -0.392847 -0.831470 -0.392847
v -0.270598 -0.923880 -0.270598
v -0.137950 -0.980785 -0.137950
v -0.108386 0.980785 -0.162212
v -0.212607 0.923880 -0.318190
v -0.308658 0.831470 -0.461939
v -0.392847 0.707107 -0.587938
v -0.461939 0.555570 -0.691341
v -0.513280 0.382683 -0.768177
v -0.544895 0.195090 -0.815493
v -0.555569 0.000000 -0.831469
v -0.544895 -0.195090 -0.815493
v -0.513280 -0.382683 -0.768177
v -0.461939 -0.555570 -0.691341
v -0.392847 -0.707107 -0.587938
v -0.308658 -0.831470 -0.461939
v -0.212607 -0.923880 -0.318190
v -0.108386 -0.980785 -0.162212
v -0.074658 0.980785 -0.180240
v -0.146446 0.923880 -0.353553
v -0.212607 0.831470 -0.513279
v -0.270598 0.707107 -0.653281
v -0.318189 0.555570 -0.768177
v -0.353553 0.382683 -0.853553
v -0.375330 0.195090 -0.906127
v -0.382683 0.000000 -0.923879
v -0.375330 -0.195090 -0.906127
v -0.353553 -0.382683 -0.853553
v -0.318189 -0.555570 -0.768177
v -0.270598 -0.707107 -0.653281
v -0.212607 -0.831470 -0.513279
v -0.146446 -0.923880 -0.353553
v -0.074658 -0.980785 -0.180240
v -0.038060 0.980785 -0.191342
v -0.074658 0.923880 -0.375330
v -0.108386 0.831470 -0.544895
v -0.137950 0.707107 -0.693520
v -0.162211 0.555570 -0.815493
v -0.180240 0.382683 -0.906127
v -0.191341 0.195090 -0.961939
v -0.195090 0.000000 -0.980784
v -0.191341 -0.195090 -0.961939
v -0.180240 -0.382683 -0.906127
v -0.162211 -0.555570 -0.815493
v -0.137950 -0.707107 -0.693520
v -0.108386 -0.831470 -0.544895
v -0.074658 -0.923880 -0.375330
v -0.038060 -0.980785 -0.191342
v 0.000000 0.980785 -0.195090
v 0.000000 0.923880 -0.382683
v 0.000000 0.707107 -0.707107
v 0.000000 0.382683 -0.923879
v 0.000000 -0.382683 -0.923879
v 0.000000 -0.707107 -0.707107
v 0.000000 -0.831470 -0.555570
v 0.000000 -0.923880 -0.382683
v 0.000000 -0.980785 -0.195090
vn -0.0000 0.1939 -0.9810
vn -0.0000 0.3805 -0.9248
vn 0.1804 0.3805 -0.9070
vn 0.1914 0.1939 -0.9622
vn -0.0000 -0.9796 -0.2010
vn -0.0000 -0.9217 -0.3879
vn 0.0757 -0.9217 -0.3804
vn 0.0392 -0.9796 -0.1971
vn -0.0000 -0.0000 -1.0000
vn 0.1951 -0.0000 -0.9808
vn -0.0000 0.9796 -0.2010
vn -0.0000 1.0000 -0.0000
vn 0.0392 0.9796 -0.1971
vn -0.0000 -1.0000 -0.0000
vn -0.0000 -0.1939 -0.9810
vn 0.1914 -0.1939 -0.9622
vn -0.0000 0.9217 -0.3879
vn 0.0757 0.9217 -0.3804
vn -0.0000 -0.3805 -0.9248
vn 0.1804 -0.3805 -0.9070
vn -0.0000 0.8286 -0.5598
vn 0.1092 0.8286 -0.5490
vn -0.0000 -0.5528 -0.8333
vn 0.1626 -0.5528 -0.8173
vn -0.0000 0.7041 -0.7101
vn 0.1385 0.7041 -0.6965
vn -0.0000 -0.7041 -0.7101
vn 0.1385 -0.7041 -0.6965
vn -0.0000 0.5528 -0.8333
vn 0.1626 0.5528 -0.8173
vn -0.0000 -0.8286 -0.5598
vn 0.1092 -0.8286 -0.5490
vn 0.3189 0.5528 -0.7699
vn 0.3539 0.3805 -0.8544
vn 0.2142 -0.8286 -0.5172
vn 0.1484 -0.9217 -0.3584
vn 0.3754 0.1939 -0.9063
vn 0.0769 -0.9796 -0.1857
vn 0.3827 -0.0000 -0.9239
vn 0.0769 0.9796 -0.1857
vn 0.3754 -0.1939 -0.9063
vn 0.1484 0.9217 -0.3584
vn 0.3539 -0.3805 -0.8544
vn 0.2142 0.8286 -0.5172
vn 0.3189 -0.5528 -0.7699
vn 0.2718 0.7041 -0.6561
vn 0.2718 -0.7041 -0.6561
vn 0.5450 -0.1939 -0.8157
vn 0.5138 -0.3805 -0.7689
vn 0.2155 0.9217 -0.3225
vn 0.3110 0.8286 -0.4654
vn 0.4630 -0.5528 -0.6929
vn 0.3945 0.7041 -0.5905
vn 0.3945 -0.7041 -0.5905
vn 0.4630 0.5528 -0.6929
vn 0.3110 -0.8286 -0.4654
vn 0.5138 0.3805 -0.7689
vn 0.2155 -0.9217 -0.3225
vn 0.5450 0.1939 -0.8157
vn 0.1117 -0.9796 -0.1671
vn 0.5556 -0.0000 -0.8315
vn 0.1117 0.9796 -0.1671
vn 0.3958 -0.8286 -0.3958
vn 0.2743 -0.9217 -0.2743
vn 0.6539 0.3805 -0.6539
vn 0.6937 0.1939 -0.6937
vn 0.1421 -0.9796 -0.1421
vn 0.7071 -0.0000 -0.7071
vn 0.1421 0.9796 -0.1421
vn 0.6937 -0.1939 -0.6937
vn 0.2743 0.9217 -0.2743
vn 0.6539 -0.3805 -0.6539
vn 0.3958 0.8286 -0.3958
vn 0.5893 -0.5528 -0.5893
vn 0.5021 0.7041 -0.5021
vn 0.5021 -0.7041 -0.5021
vn 0.5893 0.5528 -0.5893
vn 0.3225 0.9217 -0.2155
vn 0.4654 0.8286 -0.3110
vn 0.7689 -0.3805 -0.5138
vn 0.6929 -0.5528 -0.4630
vn 0.5905 0.7041 -0.3945
vn 0.5905 -0.7041 -0.3945
vn 0.6929 0.5528 -0.4630
vn 0.4654 -0.8286 -0.3110
vn 0.7689 0.3805 -0.5138
vn 0.3225 -0.9217 -0.2155
vn 0.8157 0.1939 -0.5450
vn 0.1671 -0.9796 -0.1117
vn 0.8315 -0.0000 -0.5556
vn 0.1671 0.9796 -0.1117
vn 0.8157 -0.1939 -0.5450
vn 0.8544 0.3805 -0.3539
vn 0.9063 0.1939 -0.3754
vn 0.3584 -0.9217 -0.1484
vn 0.1857 -0.9796 -0.0769
vn 0.9239 -0.0000 -0.3827
vn 0.1857 0.9796 -0.0769
vn 0.9063 -0.1939 -0.3754
vn 0.3584 0.9217 -0.1484
vn 0.8544 -0.3805 -0.3539
vn 0.5172 0.8286 -0.2142
vn 0.7699 -0.5528 -0.3189
vn 0.6561 0.7041 -0.2718
vn 0.6561 -0.7041 -0.2718
vn 0.7699 0.5528 -0.3189
vn 0.5172 -0.8286 -0.2142
vn 0.9070 -0.3805 -0.1804
vn 0.8173 -0.5528 -0.1626
vn 0.5490 0.8286 -0.1092
vn 0.6965 0.7041 -0.1385
vn 0.6965 -0.7041 -0.1385
vn 0.8173 0.5528 -0.1626
vn 0.5490 -0.8286 -0.1092
vn 0.9070 0.3805 -0.1804
vn 0.3804 -0.9217 -0.0757
vn 0.9622 0.1939 -0.1914
vn 0.1971 -0.9796 -0.0392
vn 0.9808 -0.0000 -0.1951
vn 0.1971 0.9796 -0.0392
vn 0.9622 -0.1939 -0.1914
vn 0.3804 0.9217 -0.0757
vn 0.3879 -0.9217 -0.0000
vn 0.2010 -0.9796 -0.0000
vn 0.9810 0.1939 -0.0000
vn 1.0000 -0.0000 -0.0000
vn 0.2010 0.9796 -0.0000
vn 0.9810 -0.1939 -0.0000
vn 0.3879 0.9217 -0.0000
vn 0.9248 -0.3805 -0.0000
vn 0.5598 0.8286 -0.0000
vn 0.8333 -0.5528 -0.0000
vn 0.7101 0.7041 -0.0000
vn 0.7101 -0.7041 -0.0000
vn 0.8333 0.5528 -0.0000
vn 0.5598 -0.8286 -0.0000
vn 0.9248 0.3805 -0.0000
vn 0.8173 -0.5528 0.1626
vn 0.6965 -0.7041 0.1385
vn 0.6965 0.7041 0.1385
vn 0.8173 0.5528 0.1626
vn 0.5490 -0.8286 0.1092
vn 0.9070 0.3805 0.1804
vn 0.3804 -0.9217 0.0757
vn 0.9622 0.1939 0.1914
vn 0.1971 -0.9796 0.0392
vn 0.9808 -0.0000 0.1951
vn 0.1971 0.9796 0.0392
vn 0.9622 -0.1939 0.1914
vn 0.3804 0.9217 0.0757
vn 0.9070 -0.3805 0.1804
vn 0.5490 0.8286 0.1092
vn 0.1857 0.9796 0.0769
vn 0.1857 -0.9796 0.0769
vn 0.9239 -0.0000 0.3827
vn 0.9063 -0.1939 0.3754
vn 0.3584 0.9217 0.1484
vn 0.8544 -0.3805 0.3539
vn 0.5172 0.8286 0.2142
vn 0.7699 -0.5528 0.3189
vn 0.6561 0.7041 0.2718
vn 0.6561 -0.7041 0.2718
vn 0.7699 0.5528 0.3189
vn 0.5172 -0.8286 0.2142
vn 0.8544 0.3805 0.3539
vn 0.3584 -0.9217 0.1484
vn 0.9063 0.1939 0.3754
vn 0.5905 0.7041 0.3945
vn 0.6929 0.5528 0.4630
vn 0.5905 -0.7041 0.3945
vn 0.4654 -0.8286 0.3110
vn 0.7689 0.3805 0.5138
vn 0.3225 -0.9217 0.2155
vn 0.8157 0.1939 0.5450
vn 0.1671 -0.9796 0.1117
vn 0.8315 -0.0000 0.5556
vn 0.1671 0.9796 0.1117
vn 0.8157 -0.1939 0.5450
vn 0.3225 0.9217 0.2155
vn 0.7689 -0.3805 0.5138
vn 0.4654 0.8286 0.3110
vn 0.6929 -0.5528 0.4630
vn 0.7071 -0.0000 0.7071
vn 0.6937 -0.1939 0.6937
vn 0.1421 0.9796 0.1421
vn 0.2743 0.9217 0.2743
vn 0.6539 -0.3805 0.6539
vn 0.3958 0.8286 0.3958
vn 0.5893 -0.5528 0.5893
vn 0.5021 0.7041 0.5021
vn 0.5021 -0.7041 0.5021
vn 0.5893 0.5528 0.5893
vn 0.3958 -0.8286 0.3958
vn 0.6539 0.3805 0.6539
vn 0.2743 -0.9217 0.2743
vn 0.6937 0.1939 0.6937
vn 0.1421 -0.9796 0.1421
vn 0.3945 -0.7041 0.5905
vn 0.3110 -0.8286 0.4654
vn 0.4630 0.5528 0.6929
vn 0.5138 0.3805 0.7689
vn 0.2155 -0.9217 0.3225
vn 0.5450 0.1939 0.8157
vn 0.1117 -0.9796 0.1671
vn 0.5556 -0.0000 0.8315
vn 0.1117 0.9796 0.1671
vn 0.5450 -0.1939 0.8157
vn 0.2155 0.9217 0.3225
vn 0.5138 -0.3805 0.7689
vn 0.3110 0.8286 0.4654
vn 0.4630 -0.5528 0.6929
vn 0.3945 0.7041 0.5905
vn 0.0769 0.9796 0.1857
vn 0.1484 0.9217 0.3584
vn 0.3754 -0.1939 0.9063
vn 0.3539 -0.3805 0.8544
vn 0.2142 0.8286 0.5172
vn 0.3189 -0.5528 0.7699
vn 0.2718 0.7041 0.6561
vn 0.2718 -0.7041 0.6561
vn 0.3189 0.5528 0.7699
vn 0.2142 -0.8286 0.5172
vn 0.3539 0.3805 0.8544
vn 0.1484 -0.9217 0.3584
vn 0.3754 0.1939 0.9063
vn 0.0769 -0.9796 0.1857
vn 0.3827 -0.0000 0.9239
vn 0.1626 0.5528 0.8173
vn 0.1804 0.3805 0.9070
vn 0.1092 -0.8286 0.5490
vn 0.0757 -0.9217 0.3804
vn 0.1914 0.1939 0.9622
vn 0.0392 -0.9796 0.1971
vn 0.1951 -0.0000 0.9808
vn 0.0392 0.9796 0.1971
vn 0.1914 -0.1939 0.9622
vn 0.0757 0.9217 0.3804
vn 0.1804 -0.3805 0.9070
vn 0.1092 0.8286 0.5490
vn 0.1626 -0.5528 0.8173
vn 0.1385 0.7041 0.6965
vn 0.1385 -0.7041 0.6965
vn -0.0000 -0.1939 0.9810
vn -0.0000 -0.3805 0.9248
vn -0.0000 0.9217 0.3879
vn -0.0000 0.8286 0.5598
vn -0.0000 -0.5528 0.8333
vn -0.0000 0.7041 0.7101
vn -0.0000 -0.7041 0.7101
vn -0.0000 0.5528 0.8333
vn -0.0000 -0.8286 0.5598
vn -0.0000 0.3805 0.9248
vn -0.0000 -0.9217 0.3879
vn -0.0000 0.1939 0.9810
vn -0.0000 -0.9796 0.2010
vn -0.0000 -0.0000 1.0000
vn -0.0000 0.9796 0.2010
vn -0.1092 -0.8286 0.5490
vn -0.0757 -0.9217 0.3804
vn -0.1804 0.3805 0.9070
vn -0.1914 0.1939 0.9622
vn -0.0392 -0.9796 0.1971
vn -0.1951 -0.0000 0.9808
vn -0.0392 0.9796 0.1971
vn -0.1914 -0.1939 0.9622
vn -0.0757 0.9217 0.3804
vn -0.1804 -0.3805 0.9070
vn -0.1092 0.8286 0.5490
vn -0.1626 -0.5528 0.8173
vn -0.1385 0.7041 0.6965
vn -0.1385 -0.7041 0.6965
vn -0.1626 0.5528 0.8173
vn -0.3539 -0.3805 0.8544
vn -0.3189 -0.5528 0.7699
vn -0.2142 0.8286 0.5172
vn -0.2718 0.7041 0.6561
vn -0.2718 -0.7041 0.6561
vn -0.3189 0.5528 0.7699
vn -0.2142 -0.8286 0.5172
vn -0.3539 0.3805 0.8544
vn -0.1484 -0.9217 0.3584
vn -0.3754 0.1939 0.9063
vn -0.0769 -0.9796 0.1857
vn -0.3827 -0.0000 0.9239
vn -0.0769 0.9796 0.1857
vn -0.3754 -0.1939 0.9063
vn -0.1484 0.9217 0.3584
vn -0.2155 -0.9217 0.3225
vn -0.1117 -0.9796 0.1671
vn -0.5450 0.1939 0.8157
vn -0.5556 -0.0000 0.8315
vn -0.1117 0.9796 0.1671
vn -0.5450 -0.1939 0.8157
vn -0.2155 0.9217 0.3225
vn -0.5138 -0.3805 0.7689
vn -0.3110 0.8286 0.4654
vn -0.4630 -0.5528 0.6929
vn -0.3945 0.7041 0.5905
vn -0.3945 -0.7041 0.5905
vn -0.4630 0.5528 0.6929
vn -0.3110 -0.8286 0.4654
vn -0.5138 0.3805 0.7689
vn -0.3958 0.8286 0.3958
vn -0.5021 0.7041 0.5021
vn -0.5893 -0.5528 0.5893
vn -0.5021 -0.7041 0.5021
vn -0.5893 0.5528 0.5893
vn -0.3958 -0.8286 0.3958
vn -0.6539 0.3805 0.6539
vn -0.2743 -0.9217 0.2743
vn -0.6937 0.1939 0.6937
vn -0.1421 -0.9796 0.1421
vn -0.7071 -0.0000 0.7071
vn -0.1421 0.9796 0.1421
vn -0.6937 -0.1939 0.6937
vn -0.2743 0.9217 0.2743
vn -0.6539 -0.3805 0.6539
vn -0.8157 0.1939 0.5450
vn -0.8315 -0.0000 0.5556
vn -0.1671 0.9796 0.1117
vn -0.1671 -0.9796 0.1117
vn -0.8157 -0.1939 0.5450
vn -0.3225 0.9217 0.2155
vn -0.7689 -0.3805 0.5138
vn -0.4654 0.8286 0.3110
vn -0.6929 -0.5528 0.4630
vn -0.5905 0.7041 0.3945
vn -0.5905 -0.7041 0.3945
vn -0.6929 0.5528 0.4630
vn -0.4654 -0.8286 0.3110
vn -0.7689 0.3805 0.5138
vn -0.3225 -0.9217 0.2155
vn -0.7699 -0.5528 0.3189
vn -0.6561 -0.7041 0.2718
vn -0.6561 0.7041 0.2718
vn -0.7699 0.5528 0.3189
vn -0.5172 -0.8286 0.2142
vn -0.8544 0.3805 0.3539
vn -0.3584 -0.9217 0.1484
vn -0.9063 0.1939 0.3754
vn -0.1857 -0.9796 0.0769
vn -0.9239 -0.0000 0.3827
vn -0.1857 0.9796 0.0769
vn -0.9063 -0.1939 0.3754
vn -0.3584 0.9217 0.1484
vn -0.8544 -0.3805 0.3539
vn -0.5172 0.8286 0.2142
vn -0.1971 0.9796 0.0392
vn -0.1971 -0.9796 0.0392
vn -0.9808 -0.0000 0.1951
vn -0.9622 -0.1939 0.1914
vn -0.3804 0.9217 0.0757
vn -0.9070 -0.3805 0.1804
vn -0.5490 0.8286 0.1092
vn -0.8173 -0.5528 0.1626
vn -0.6965 0.7041 0.1385
vn -0.6965 -0.7041 0.1385
vn -0.8173 0.5528 0.1626
vn -0.5490 -0.8286 0.1092
vn -0.9070 0.3805 0.1804
vn -0.3804 -0.9217 0.0757
vn -0.9622 0.1939 0.1914
vn -0.7101 0.7041 -0.0000
vn -0.8333 0.5528 -0.0000
vn -0.7101 -0.7041 -0.0000
vn -0.5598 -0.8286 -0.0000
vn -0.9248 0.3805 -0.0000
vn -0.3879 -0.9217 -0.0000
vn -0.9810 0.1939 -0.0000
vn -0.2010 -0.9796 -0.0000
vn -1.0000 -0.0000 -0.0000
vn -0.2010 0.9796 -0.0000
vn -0.9810 -0.1939 -0.0000
vn -0.3879 0.9217 -0.0000
vn -0.9248 -0.3805 -0.0000
vn -0.5598 0.8286 -0.0000
vn -0.8333 -0.5528 -0.0000
vn -0.9808 -0.0000 -0.1951
vn -0.9622 -0.1939 -0.1914
vn -0.1971 0.9796 -0.0392
vn -0.3804 0.9217 -0.0757
vn -0.9070 -0.3805 -0.1804
vn -0.5490 0.8286 -0.1092
vn -0.8173 -0.5528 -0.1626
vn -0.6965 0.7041 -0.1385
vn -0.6965 -0.7041 -0.1385
vn -0.8173 0.5528 -0.1626
vn -0.5490 -0.8286 -0.1092
vn -0.9070 0.3805 -0.1804
vn -0.3804 -0.9217 -0.0757
vn -0.9622 0.1939 -0.1914
vn -0.1971 -0.9796 -0.0392
vn -0.6561 -0.7041 -0.2718
vn -0.5172 -0.8286 -0.2142
vn -0.7699 0.5528 -0.3189
vn -0.8544 0.3805 -0.3539
vn -0.3584 -0.9217 -0.1484
vn -0.9063 0.1939 -0.3754
vn -0.1857 -0.9796 -0.0769
vn -0.9239 -0.0000 -0.3827
vn -0.1857 0.9796 -0.0769
vn -0.9063 -0.1939 -0.3754
vn -0.3584 0.9217 -0.1484
vn -0.8544 -0.3805 -0.3539
vn -0.5172 0.8286 -0.2142
vn -0.7699 -0.5528 -0.3189
vn -0.6561 0.7041 -0.2718
vn -0.8157 -0.1939 -0.5450
vn -0.7689 -0.3805 -0.5138
vn -0.3225 0.9217 -0.2155
vn -0.4654 0.8286 -0.3110
vn -0.6929 -0.5528 -0.4630
vn -0.5905 0.7041 -0.3945
vn -0.5905 -0.7041 -0.3945
vn -0.6929 0.5528 -0.4630
vn -0.4654 -0.8286 -0.3110
vn -0.7689 0.3805 -0.5138
vn -0.3225 -0.9217 -0.2155
vn -0.8157 0.1939 -0.5450
vn -0.1671 -0.9796 -0.1117
vn -0.8315 -0.0000 -0.5556
vn -0.1671 0.9796 -0.1117
vn -0.3958 -0.8286 -0.3958
vn -0.2743 -0.9217 -0.2743
vn -0.6539 0.3805 -0.6539
vn -0.6937 0.1939 -0.6937
vn -0.1421 -0.9796 -0.1421
vn -0.7071 -0.0000 -0.7071
vn -0.1421 0.9796 -0.1421
vn -0.6937 -0.1939 -0.6937
vn -0.2743 0.9217 -0.2743
vn -0.6539 -0.3805 -0.6539
vn -0.3958 0.8286 -0.3958
vn -0.5893 -0.5528 -0.5893
vn -0.5021 0.7041 -0.5021
vn -0.5021 -0.7041 -0.5021
vn -0.5893 0.5528 -0.5893
vn -0.2155 0.9217 -0.3225
vn -0.3110 0.8286 -0.4654
vn -0.5138 -0.3805 -0.7689
vn -0.4630 -0.5528 -0.6929
vn -0.3945 0.7041 -0.5905
vn -0.3945 -0.7041 -0.5905
vn -0.4630 0.5528 -0.6929
vn -0.3110 -0.8286 -0.4654
vn -0.5138 0.3805 -0.7689
vn -0.2155 -0.9217 -0.3225
vn -0.5450 0.1939 -0.8157
vn -0.1117 -0.9796 -0.1671
vn -0.5556 -0.0000 -0.8315
vn -0.1117 0.9796 -0.1671
vn -0.5450 -0.1939 -0.8157
vn -0.3539 0.3805 -0.8544
vn -0.3754 0.1939 -0.9063
vn -0.1484 -0.9217 -0.3584
vn -0.0769 -0.9796 -0.1857
vn -0.3827 -0.0000 -0.9239
vn -0.0769 0.9796 -0.1857
vn -0.3754 -0.1939 -0.9063
vn -0.1484 0.9217 -0.3584
vn -0.3539 -0.3805 -0.8544
vn -0.2142 0.8286 -0.5172
vn -0.3189 -0.5528 -0.7699
vn -0.2718 0.7041 -0.6561
vn -0.2718 -0.7041 -0.6561
vn -0.3189 0.5528 -0.7699
vn -0.2142 -0.8286 -0.5172
vn -0.1804 -0.3805 -0.9070
vn -0.1626 -0.5528 -0.8173
vn -0.1092 0.8286 -0.5490
vn -0.1385 0.7041 -0.6965
vn -0.1385 -0.7041 -0.6965
vn -0.1626 0.5528 -0.8173
vn -0.1092 -0.8286 -0.5490
vn -0.1804 0.3805 -0.9070
vn -0.0757 -0.9217 -0.3804
vn -0.1914 0.1939 -0.9622
vn -0.0392 -0.9796 -0.1971
vn -0.1951 -0.0000 -0.9808
vn -0.0392 0.9796 -0.1971
vn -0.1914 -0.1939 -0.9622
vn -0.0757 0.9217 -0.3804
vt 0.750000 0.562500
vt 0.750000 0.625000
vt 0.718750 0.625000
vt 0.718750 0.562500
vt 0.750000 0.062500
vt 0.750000 0.125000
vt 0.718750 0.125000
vt 0.718750 0.062500
vt 0.750000 0.500000
vt 0.718750 0.500000
vt 0.750000 0.937500
vt 0.734375 1.000000
vt 0.718750 0.937500
vt 0.734375 0.000000
vt 0.750000 0.437500
vt 0.718750 0.437500
vt 0.750000 0.875000
vt 0.718750 0.875000
vt 0.750000 0.375000
vt 0.718750 0.375000
vt 0.750000 0.812500
vt 0.718750 0.812500
vt 0.750000 0.312500
vt 0.718750 0.312500
vt 0.750000 0.750000
vt 0.718750 0.750000
vt 0.750000 0.250000
vt 0.718750 0.250000
vt 0.750000 0.687500
vt 0.718750 0.687500
vt 0.750000 0.187500
vt 0.718750 0.187500
vt 0.687500 0.687500
vt 0.687500 0.625000
vt 0.687500 0.187500
vt 0.687500 0.125000
vt 0.687500 0.562500
vt 0.687500 0.062500
vt 0.687500 0.500000
vt 0.703125 1.000000
vt 0.687500 0.937500
vt 0.703125 0.000000
vt 0.687500 0.437500
vt 0.687500 0.875000
vt 0.687500 0.375000
vt 0.687500 0.812500
vt 0.687500 0.312500
vt 0.687500 0.750000
vt 0.687500 0.250000
vt 0.656250 0.437500
vt 0.656250 0.375000
vt 0.656250 0.875000
vt 0.656250 0.812500
vt 0.656250 0.312500
vt 0.656250 0.750000
vt 0.656250 0.250000
vt 0.656250 0.687500
vt 0.656250 0.187500
vt 0.656250 0.625000
vt 0.656250 0.125000
vt 0.656250 0.562500
vt 0.656250 0.062500
vt 0.656250 0.500000
vt 0.671875 1.000000
vt 0.656250 0.937500
vt 0.671875 0.000000
vt 0.625000 0.187500
vt 0.625000 0.125000
vt 0.625000 0.625000
vt 0.625000 0.562500
vt 0.625000 0.062500
vt 0.625000 0.500000
vt 0.640625 1.000000
vt 0.625000 0.937500
vt 0.640625 0.000000
vt 0.625000 0.437500
vt 0.625000 0.875000
vt 0.625000 0.375000
vt 0.625000 0.812500
vt 0.625000 0.312500
vt 0.625000 0.750000
vt 0.625000 0.250000
vt 0.625000 0.687500
vt 0.593750 0.875000
vt 0.593750 0.812500
vt 0.593750 0.375000
vt 0.593750 0.312500
vt 0.593750 0.750000
vt 0.593750 0.250000
vt 0.593750 0.687500
vt 0.593750 0.187500
vt 0.593750 0.625000
vt 0.593750 0.125000
vt 0.593750 0.562500
vt 0.593750 0.062500
vt 0.593750 0.500000
vt 0.609375 1.000000
vt 0.593750 0.937500
vt 0.609375 0.000000
vt 0.593750 0.437500
vt 0.562500 0.625000
vt 0.562500 0.562500
vt 0.562500 0.125000
vt 0.562500 0.062500
vt 0.562500 0.500000
vt 0.578125 1.000000
vt 0.562500 0.937500
vt 0.578125 0.000000
vt 0.562500 0.437500
vt 0.562500 0.875000
vt 0.562500 0.375000
vt 0.562500 0.812500
vt 0.562500 0.312500
vt 0.562500 0.750000
vt 0.562500 0.250000
vt 0.562500 0.687500
vt 0.562500 0.187500
vt 0.531250 0.375000
vt 0.531250 0.312500
vt 0.531250 0.812500
vt 0.531250 0.750000
vt 0.531250 0.250000
vt 0.531250 0.687500
vt 0.531250 0.187500
vt 0.531250 0.625000
vt 0.531250 0.125000
vt 0.531250 0.562500
vt 0.531250 0.062500
vt 0.531250 0.500000
vt 0.546875 1.000000
vt 0.531250 0.937500
vt 0.546875 0.000000
vt 0.531250 0.437500
vt 0.531250 0.875000
vt 0.500000 0.125000
vt 0.500000 0.062500
vt 0.500000 0.562500
vt 0.500000 0.500000
vt 0.515625 1.000000
vt 0.500000 0.937500
vt 0.515625 0.000000
vt 0.500000 0.437500
vt 0.500000 0.875000
vt 0.500000 0.375000
vt 0.500000 0.812500
vt 0.500000 0.312500
vt 0.500000 0.750000
vt 0.500000 0.250000
vt 0.500000 0.687500
vt 0.500000 0.187500
vt 0.500000 0.625000
vt 0.468750 0.312500
vt 0.468750 0.250000
vt 0.468750 0.750000
vt 0.468750 0.687500
vt 0.468750 0.187500
vt 0.468750 0.625000
vt 0.468750 0.125000
vt 0.468750 0.562500
vt 0.468750 0.062500
vt 0.468750 0.500000
vt 0.484375 1.000000
vt 0.468750 0.937500
vt 0.484375 0.000000
vt 0.468750 0.437500
vt 0.468750 0.875000
vt 0.468750 0.375000
vt 0.468750 0.812500
vt 0.453125 1.000000
vt 0.437500 0.937500
vt 0.453125 0.000000
vt 0.437500 0.062500
vt 0.437500 0.500000
vt 0.437500 0.437500
vt 0.437500 0.875000
vt 0.437500 0.375000
vt 0.437500 0.812500
vt 0.437500 0.312500
vt 0.437500 0.750000
vt 0.437500 0.250000
vt 0.437500 0.687500
vt 0.437500 0.187500
vt 0.437500 0.625000
vt 0.437500 0.125000
vt 0.437500 0.562500
vt 0.406250 0.750000
vt 0.406250 0.687500
vt 0.406250 0.250000
vt 0.406250 0.187500
vt 0.406250 0.625000
vt 0.406250 0.125000
vt 0.406250 0.562500
vt 0.406250 0.062500
vt 0.406250 0.500000
vt 0.421875 1.000000
vt 0.406250 0.937500
vt 0.421875 0.000000
vt 0.406250 0.437500
vt 0.406250 0.875000
vt 0.406250 0.375000
vt 0.406250 0.812500
vt 0.406250 0.312500
vt 0.375000 0.500000
vt 0.375000 0.437500
vt 0.375000 0.937500
vt 0.375000 0.875000
vt 0.375000 0.375000
vt 0.375000 0.812500
vt 0.375000 0.312500
vt 0.375000 0.750000
vt 0.375000 0.250000
vt 0.375000 0.687500
vt 0.375000 0.187500
vt 0.375000 0.625000
vt 0.375000 0.125000
vt 0.375000 0.562500
vt 0.375000 0.062500
vt 0.390625 1.000000
vt 0.390625 0.000000
vt 0.343750 0.250000
vt 0.343750 0.187500
vt 0.343750 0.687500
vt 0.343750 0.625000
vt 0.343750 0.125000
vt 0.343750 0.562500
vt 0.343750 0.062500
vt 0.343750 0.500000
vt 0.359375 1.000000
vt 0.343750 0.937500
vt 0.359375 0.000000
vt 0.343750 0.437500
vt 0.343750 0.875000
vt 0.343750 0.375000
vt 0.343750 0.812500
vt 0.343750 0.312500
vt 0.343750 0.750000
vt 0.312500 0.937500
vt 0.312500 0.875000
vt 0.312500 0.437500
vt 0.312500 0.375000
vt 0.312500 0.812500
vt 0.312500 0.312500
vt 0.312500 0.750000
vt 0.312500 0.250000
vt 0.312500 0.687500
vt 0.312500 0.187500
vt 0.312500 0.625000
vt 0.312500 0.125000
vt 0.312500 0.562500
vt 0.312500 0.062500
vt 0.312500 0.500000
vt 0.328125 1.000000
vt 0.328125 0.000000
vt 0.281250 0.687500
vt 0.281250 0.625000
vt 0.281250 0.187500
vt 0.281250 0.125000
vt 0.281250 0.562500
vt 0.281250 0.062500
vt 0.281250 0.500000
vt 0.296875 1.000000
vt 0.281250 0.937500
vt 0.296875 0.000000
vt 0.281250 0.437500
vt 0.281250 0.875000
vt 0.281250 0.375000
vt 0.281250 0.812500
vt 0.281250 0.312500
vt 0.281250 0.750000
vt 0.281250 0.250000
vt 0.250000 0.437500
vt 0.250000 0.375000
vt 0.250000 0.875000
vt 0.250000 0.812500
vt 0.250000 0.312500
vt 0.250000 0.750000
vt 0.250000 0.250000
vt 0.250000 0.687500
vt 0.250000 0.187500
vt 0.250000 0.625000
vt 0.250000 0.125000
vt 0.250000 0.562500
vt 0.250000 0.062500
vt 0.250000 0.500000
vt 0.265625 1.000000
vt 0.250000 0.937500
vt 0.265625 0.000000
vt 0.218750 0.187500
vt 0.218750 0.125000
vt 0.218750 0.625000
vt 0.218750 0.562500
vt 0.218750 0.062500
vt 0.218750 0.500000
vt 0.234375 1.000000
vt 0.218750 0.937500
vt 0.234375 0.000000
vt 0.218750 0.437500
vt 0.218750 0.875000
vt 0.218750 0.375000
vt 0.218750 0.812500
vt 0.218750 0.312500
vt 0.218750 0.750000
vt 0.218750 0.250000
vt 0.218750 0.687500
vt 0.187500 0.375000
vt 0.187500 0.312500
vt 0.187500 0.812500
vt 0.187500 0.750000
vt 0.187500 0.250000
vt 0.187500 0.687500
vt 0.187500 0.187500
vt 0.187500 0.625000
vt 0.187500 0.125000
vt 0.187500 0.562500
vt 0.187500 0.062500
vt 0.187500 0.500000
vt 0.203125 1.000000
vt 0.187500 0.937500
vt 0.203125 0.000000
vt 0.187500 0.437500
vt 0.187500 0.875000
vt 0.156250 0.125000
vt 0.156250 0.062500
vt 0.156250 0.562500
vt 0.156250 0.500000
vt 0.171875 1.000000
vt 0.156250 0.937500
vt 0.171875 0.000000
vt 0.156250 0.437500
vt 0.156250 0.875000
vt 0.156250 0.375000
vt 0.156250 0.812500
vt 0.156250 0.312500
vt 0.156250 0.750000
vt 0.156250 0.250000
vt 0.156250 0.687500
vt 0.156250 0.187500
vt 0.156250 0.625000
vt 0.125000 0.812500
vt 0.125000 0.750000
vt 0.125000 0.312500
vt 0.125000 0.250000
vt 0.125000 0.687500
vt 0.125000 0.187500
vt 0.125000 0.625000
vt 0.125000 0.125000
vt 0.125000 0.562500
vt 0.125000 0.062500
vt 0.125000 0.500000
vt 0.140625 1.000000
vt 0.125000 0.937500
vt 0.140625 0.000000
vt 0.125000 0.437500
vt 0.125000 0.875000
vt 0.125000 0.375000
vt 0.093750 0.562500
vt 0.093750 0.500000
vt 0.109375 1.000000
vt 0.093750 0.937500
vt 0.109375 0.000000
vt 0.093750 0.062500
vt 0.093750 0.437500
vt 0.093750 0.875000
vt 0.093750 0.375000
vt 0.093750 0.812500
vt 0.093750 0.312500
vt 0.093750 0.750000
vt 0.093750 0.250000
vt 0.093750 0.687500
vt 0.093750 0.187500
vt 0.093750 0.625000
vt 0.093750 0.125000
vt 0.062500 0.312500
vt 0.062500 0.250000
vt 0.062500 0.750000
vt 0.062500 0.687500
vt 0.062500 0.187500
vt 0.062500 0.625000
vt 0.062500 0.125000
vt 0.062500 0.562500
vt 0.062500 0.062500
vt 0.062500 0.500000
vt 0.078125 1.000000
vt 0.062500 0.937500
vt 0.078125 0.000000
vt 0.062500 0.437500
vt 0.062500 0.875000
vt 0.062500 0.375000
vt 0.062500 0.812500
vt 0.046875 1.000000
vt 0.031250 0.937500
vt 0.046875 0.000000
vt 0.031250 0.062500
vt 0.031250 0.500000
vt 0.031250 0.437500
vt 0.031250 0.875000
vt 0.031250 0.375000
vt 0.031250 0.812500
vt 0.031250 0.312500
vt 0.031250 0.750000
vt 0.031250 0.250000
vt 0.031250 0.687500
vt 0.031250 0.187500
vt 0.031250 0.625000
vt 0.031250 0.125000
vt 0.031250 0.562500
vt 0.000000 0.750000
vt 0.000000 0.687500
vt 0.000000 0.250000
vt 0.000000 0.187500
vt 0.000000 0.625000
vt 0.000000 0.125000
vt 0.000000 0.562500
vt 0.000000 0.062500
vt 0.000000 0.500000
vt 0.015625 1.000000
vt 0.000000 0.937500
vt 0.015625 0.000000
vt 0.000000 0.437500
vt 0.000000 0.875000
vt 0.000000 0.375000
vt 0.000000 0.812500
vt 0.000000 0.312500
vt 1.000000 0.437500
vt 1.000000 0.500000
vt 0.968750 0.500000
vt 0.968750 0.437500
vt 1.000000 0.875000
vt 1.000000 0.937500
vt 0.968750 0.937500
vt 0.968750 0.875000
vt 1.000000 0.375000
vt 0.968750 0.375000
vt 1.000000 0.812500
vt 0.968750 0.812500
vt 1.000000 0.312500
vt 0.968750 0.312500
vt 1.000000 0.750000
vt 0.968750 0.750000
vt 1.000000 0.250000
vt 0.968750 0.250000
vt 1.000000 0.687500
vt 0.968750 0.687500
vt 1.000000 0.187500
vt 0.968750 0.187500
vt 1.000000 0.625000
vt 0.968750 0.625000
vt 1.000000 0.125000
vt 0.968750 0.125000
vt 1.000000 0.562500
vt 0.968750 0.562500
vt 1.000000 0.062500
vt 0.968750 0.062500
vt 0.984375 1.000000
vt 0.984375 0.000000
vt 0.937500 0.250000
vt 0.937500 0.187500
vt 0.937500 0.687500
vt 0.937500 0.625000
vt 0.937500 0.125000
vt 0.937500 0.562500
vt 0.937500 0.062500
vt 0.937500 0.500000
vt 0.953125 1.000000
vt 0.937500 0.937500
vt 0.953125 0.000000
vt 0.937500 0.437500
vt 0.937500 0.875000
vt 0.937500 0.375000
vt 0.937500 0.812500
vt 0.937500 0.312500
vt 0.937500 0.750000
vt 0.906250 0.437500
vt 0.906250 0.375000
vt 0.906250 0.875000
vt 0.906250 0.812500
vt 0.906250 0.312500
vt 0.906250 0.750000
vt 0.906250 0.250000
vt 0.906250 0.687500
vt 0.906250 0.187500
vt 0.906250 0.625000
vt 0.906250 0.125000
vt 0.906250 0.562500
vt 0.906250 0.062500
vt 0.906250 0.500000
vt 0.921875 1.000000
vt 0.906250 0.937500
vt 0.921875 0.000000
vt 0.875000 0.187500
vt 0.875000 0.125000
vt 0.875000 0.625000
vt 0.875000 0.562500
vt 0.875000 0.062500
vt 0.875000 0.500000
vt 0.890625 1.000000
vt 0.875000 0.937500
vt 0.890625 0.000000
vt 0.875000 0.437500
vt 0.875000 0.875000
vt 0.875000 0.375000
vt 0.875000 0.812500
vt 0.875000 0.312500
vt 0.875000 0.750000
vt 0.875000 0.250000
vt 0.875000 0.687500
vt 0.843750 0.875000
vt 0.843750 0.812500
vt 0.843750 0.375000
vt 0.843750 0.312500
vt 0.843750 0.750000
vt 0.843750 0.250000
vt 0.843750 0.687500
vt 0.843750 0.187500
vt 0.843750 0.625000
vt 0.843750 0.125000
vt 0.843750 0.562500
vt 0.843750 0.062500
vt 0.843750 0.500000
vt 0.859375 1.000000
vt 0.843750 0.937500
vt 0.859375 0.000000
vt 0.843750 0.437500
vt 0.812500 0.625000
vt 0.812500 0.562500
vt 0.812500 0.125000
vt 0.812500 0.062500
vt 0.812500 0.500000
vt 0.828125 1.000000
vt 0.812500 0.937500
vt 0.828125 0.000000
vt 0.812500 0.437500
vt 0.812500 0.875000
vt 0.812500 0.375000
vt 0.812500 0.812500
vt 0.812500 0.312500
vt 0.812500 0.750000
vt 0.812500 0.250000
vt 0.812500 0.687500
vt 0.812500 0.187500
vt 0.781250 0.375000
vt 0.781250 0.312500
vt 0.781250 0.812500
vt 0.781250 0.750000
vt 0.781250 0.250000
vt 0.781250 0.687500
vt 0.781250 0.187500
vt 0.781250 0.625000
vt 0.781250 0.125000
vt 0.781250 0.562500
vt 0.781250 0.062500
vt 0.781250 0.500000
vt 0.796875 1.000000
vt 0.781250 0.937500
vt 0.796875 0.000000
vt 0.781250 0.437500
vt 0.781250 0.875000
vt 0.765625 1.000000
vt 0.765625 0.000000
s 1
f 3/1/1 477/2/2 12/3/3 13/4/4
f 482/5/5 481/6/6 20/7/7 21/8/8
f 4/9/9 3/1/1 13/4/4 14/10/10
f 474/11/11 82/12/12 7/13/13
f 308/14/14 482/5/5 21/8/8
f 5/15/15 4/9/9 14/10/10 15/16/16
f 475/17/17 474/11/11 7/13/13 8/18/18
f 478/19/19 5/15/15 15/16/16 16/20/20
f 1/21/21 475/17/17 8/18/18 9/22/22
f 6/23/23 478/19/19 16/20/20 17/24/24
f 476/25/25 1/21/21 9/22/22 10/26/26
f 479/27/27 6/23/23 17/24/24 18/28/28
f 2/29/29 476/25/25 10/26/26 11/30/30
f 480/31/31 479/27/27 18/28/28 19/32/32
f 477/2/2 2/29/29 11/30/30 12/3/3
f 481/6/6 480/31/31 19/32/32 20/7/7
f 12/3/3 11/30/30 26/33/33 27/34/34
f 20/7/7 19/32/32 34/35/35 35/36/36
f 13/4/4 12/3/3 27/34/34 28/37/37
f 21/8/8 20/7/7 35/36/36 36/38/38
f 14/10/10 13/4/4 28/37/37 29/39/39
f 7/13/13 82/40/12 22/41/40
f 308/42/14 21/8/8 36/38/38
f 15/16/16 14/10/10 29/39/39 30/43/41
f 8/18/18 7/13/13 22/41/40 23/44/42
f 16/20/20 15/16/16 30/43/41 31/45/43
f 9/22/22 8/18/18 23/44/42 24/46/44
f 17/24/24 16/20/20 31/45/43 32/47/45
f 10/26/26 9/22/22 24/46/44 25/48/46
f 18/28/28 17/24/24 32/47/45 33/49/47
f 11/30/30 10/26/26 25/48/46 26/33/33
f 19/32/32 18/28/28 33/49/47 34/35/35
f 31/45/43 30/43/41 45/50/48 46/51/49
f 24/46/44 23/44/42 38/52/50 39/53/51
f 32/47/45 31/45/43 46/51/49 47/54/52
f 25/48/46 24/46/44 39/53/51 40/55/53
f 33/49/47 32/47/45 47/54/52 48/56/54
f 26/33/33 25/48/46 40/55/53 41/57/55
f 34/35/35 33/49/47 48/56/54 49/58/56
f 27/34/34 26/33/33 41/57/55 42/59/57
f 35/36/36 34/35/35 49/58/56 50/60/58
f 28/37/37 27/34/34 42/59/57 43/61/59
f 36/38/38 35/36/36 50/60/58 51/62/60
f 29/39/39 28/37/37 43/61/59 44/63/61
f 22/41/40 82/64/12 37/65/62
f 308/66/14 36/38/38 51/62/60
f 30/43/41 29/39/39 44/63/61 45/50/48
f 23/44/42 22/41/40 37/65/62 38/52/50
f 50/60/58 49/58/56 64/67/63 65/68/64
f 43/61/59 42/59/57 57/69/65 58/70/66
f 51/62/60 50/60/58 65/68/64 66/71/67
f 44/63/61 43/61/59 58/70/66 59/72/68
f 37/65/62 82/73/12 52/74/69
f 308/75/14 51/62/60 66/71/67
f 45/50/48 44/63/61 59/72/68 60/76/70
f 38/52/50 37/65/62 52/74/69 53/77/71
f 46/51/49 45/50/48 60/76/70 61/78/72
f 39/53/51 38/52/50 53/77/71 54/79/73
f 47/54/52 46/51/49 61/78/72 62/80/74
f 40/55/53 39/53/51 54/79/73 55/81/75
f 48/56/54 47/54/52 62/80/74 63/82/76
f 41/57/55 40/55/53 55/81/75 56/83/77
f 49/58/56 48/56/54 63/82/76 64/67/63
f 42/59/57 41/57/55 56/83/77 57/69/65
f 54/79/73 53/77/71 68/84/78 69/85/79
f 62/80/74 61/78/72 76/86/80 77/87/81
f 55/81/75 54/79/73 69/85/79 70/88/82
f 63/82/76 62/80/74 77/87/81 78/89/83
f 56/83/77 55/81/75 70/88/82 71/90/84
f 64/67/63 63/82/76 78/89/83 79/91/85
f 57/69/65 56/83/77 71/90/84 72/92/86
f 65/68/64 64/67/63 79/91/85 80/93/87
f 58/70/66 57/69/65 72/92/86 73/94/88
f 66/71/67 65/68/64 80/93/87 81/95/89
f 59/72/68 58/70/66 73/94/88 74/96/90
f 52/74/69 82/97/12 67/98/91
f 308/99/14 66/71/67 81/95/89
f 60/76/70 59/72/68 74/96/90 75/100/92
f 53/77/71 52/74/69 67/98/91 68/84/78
f 61/78/72 60/76/70 75/100/92 76/86/80
f 73/94/88 72/92/86 88/101/93 89/102/94
f 81/95/89 80/93/87 96/103/95 97/104/96
f 74/96/90 73/94/88 89/102/94 90/105/97
f 67/98/91 82/106/12 83/107/98
f 308/108/14 81/95/89 97/104/96
f 75/100/92 74/96/90 90/105/97 91/109/99
f 68/84/78 67/98/91 83/107/98 84/110/100
f 76/86/80 75/100/92 91/109/99 92/111/101
f 69/85/79 68/84/78 84/110/100 85/112/102
f 77/87/81 76/86/80 92/111/101 93/113/103
f 70/88/82 69/85/79 85/112/102 86/114/104
f 78/89/83 77/87/81 93/113/103 94/115/105
f 71/90/84 70/88/82 86/114/104 87/116/106
f 79/91/85 78/89/83 94/115/105 95/117/107
f 72/92/86 71/90/84 87/116/106 88/101/93
f 80/93/87 79/91/85 95/117/107 96/103/95
f 93/113/103 92/111/101 107/118/108 108/119/109
f 86/114/104 85/112/102 100/120/110 101/121/111
f 94/115/105 93/113/103 108/119/109 109/122/112
f 87/116/106 86/114/104 101/121/111 102/123/113
f 95/117/107 94/115/105 109/122/112 110/124/114
f 88/101/93 87/116/106 102/123/113 103/125/115
f 96/103/95 95/117/107 110/124/114 111/126/116
f 89/102/94 88/101/93 103/125/115 104/127/117
f 97/104/96 96/103/95 111/126/116 112/128/118
f 90/105/97 89/102/94 104/127/117 105/129/119
f 83/107/98 82/130/12 98/131/120
f 308/132/14 97/104/96 112/128/118
f 91/109/99 90/105/97 105/129/119 106/133/121
f 84/110/100 83/107/98 98/131/120 99/134/122
f 92/111/101 91/109/99 106/133/121 107/118/108
f 85/112/102 84/110/100 99/134/122 100/120/110
f 112/128/118 111/126/116 126/135/123 127/136/124
f 105/129/119 104/127/117 119/137/125 120/138/126
f 98/131/120 82/139/12 113/140/127
f 308/141/14 112/128/118 127/136/124
f 106/133/121 105/129/119 120/138/126 121/142/128
f 99/134/122 98/131/120 113/140/127 114/143/129
f 107/118/108 106/133/121 121/142/128 122/144/130
f 100/120/110 99/134/122 114/143/129 115/145/131
f 108/119/109 107/118/108 122/144/130 123/146/132
f 101/121/111 100/120/110 115/145/131 116/147/133
f 109/122/112 108/119/109 123/146/132 124/148/134
f 102/123/113 101/121/111 116/147/133 117/149/135
f 110/124/114 109/122/112 124/148/134 125/150/136
f 103/125/115 102/123/113 117/149/135 118/151/137
f 111/126/116 110/124/114 125/150/136 126/135/123
f 104/127/117 103/125/115 118/151/137 119/137/125
f 124/148/134 123/146/132 138/152/138 139/153/139
f 117/149/135 116/147/133 131/154/140 132/155/141
f 125/150/136 124/148/134 139/153/139 140/156/142
f 118/151/137 117/149/135 132/155/141 133/157/143
f 126/135/123 125/150/136 140/156/142 141/158/144
f 119/137/125 118/151/137 133/157/143 134/159/145
f 127/136/124 126/135/123 141/158/144 142/160/146
f 120/138/126 119/137/125 134/159/145 135/161/147
f 113/140/127 82/162/12 128/163/148
f 308/164/14 127/136/124 142/160/146
f 121/142/128 120/138/126 135/161/147 136/165/149
f 114/143/129 113/140/127 128/163/148 129/166/150
f 122/144/130 121/142/128 136/165/149 137/167/151
f 115/145/131 114/143/129 129/166/150 130/168/152
f 123/146/132 122/144/130 137/167/151 138/152/138
f 116/147/133 115/145/131 130/168/152 131/154/140
f 128/163/148 82/169/12 143/170/153
f 308/171/14 142/160/146 157/172/154
f 136/165/149 135/161/147 150/173/155 151/174/156
f 129/166/150 128/163/148 143/170/153 144/175/157
f 137/167/151 136/165/149 151/174/156 152/176/158
f 130/168/152 129/166/150 144/175/157 145/177/159
f 138/152/138 137/167/151 152/176/158 153/178/160
f 131/154/140 130/168/152 145/177/159 146/179/161
f 139/153/139 138/152/138 153/178/160 154/180/162
f 132/155/141 131/154/140 146/179/161 147/181/163
f 140/156/142 139/153/139 154/180/162 155/182/164
f 133/157/143 132/155/141 147/181/163 148/183/165
f 141/158/144 140/156/142 155/182/164 156/184/166
f 134/159/145 133/157/143 148/183/165 149/185/167
f 142/160/146 141/158/144 156/184/166 157/172/154
f 135/161/147 134/159/145 149/185/167 150/173/155
f 147/181/163 146/179/161 161/186/168 162/187/169
f 155/182/164 154/180/162 169/188/170 170/189/171
f 148/183/165 147/181/163 162/187/169 163/190/172
f 156/184/166 155/182/164 170/189/171 171/191/173
f 149/185/167 148/183/165 163/190/172 164/192/174
f 157/172/154 156/184/166 171/191/173 172/193/175
f 150/173/155 149/185/167 164/192/174 165/194/176
f 143/170/153 82/195/12 158/196/177
f 308/197/14 157/172/154 172/193/175
f 151/174/156 150/173/155 165/194/176 166/198/178
f 144/175/157 143/170/153 158/196/177 159/199/179
f 152/176/158 151/174/156 166/198/178 167/200/180
f 145/177/159 144/175/157 159/199/179 160/201/181
f 153/178/160 152/176/158 167/200/180 168/202/182
f 146/179/161 145/177/159 160/201/181 161/186/168
f 154/180/162 153/178/160 168/202/182 169/188/170
f 166/198/178 165/194/176 180/203/183 181/204/184
f 159/199/179 158/196/177 173/205/185 174/206/186
f 167/200/180 166/198/178 181/204/184 182/207/187
f 160/201/181 159/199/179 174/206/186 175/208/188
f 168/202/182 167/200/180 182/207/187 183/209/189
f 161/186/168 160/201/181 175/208/188 176/210/190
f 169/188/170 168/202/182 183/209/189 184/211/191
f 162/187/169 161/186/168 176/210/190 177/212/192
f 170/189/171 169/188/170 184/211/191 185/213/193
f 163/190/172 162/187/169 177/212/192 178/214/194
f 171/191/173 170/189/171 185/213/193 186/215/195
f 164/192/174 163/190/172 178/214/194 179/216/196
f 172/193/175 171/191/173 186/215/195 187/217/197
f 165/194/176 164/192/174 179/216/196 180/203/183
f 158/196/177 82/218/12 173/205/185
f 308/219/14 172/193/175 187/217/197
f 185/213/193 184/211/191 199/220/198 200/221/199
f 178/214/194 177/212/192 192/222/200 193/223/201
f 186/215/195 185/213/193 200/221/199 201/224/202
f 179/216/196 178/214/194 193/223/201 194/225/203
f 187/217/197 186/215/195 201/224/202 202/226/204
f 180/203/183 179/216/196 194/225/203 195/227/205
f 173/205/185 82/228/12 188/229/206
f 308/230/14 187/217/197 202/226/204
f 181/204/184 180/203/183 195/227/205 196/231/207
f 174/206/186 173/205/185 188/229/206 189/232/208
f 182/207/187 181/204/184 196/231/207 197/233/209
f 175/208/188 174/206/186 189/232/208 190/234/210
f 183/209/189 182/207/187 197/233/209 198/235/211
f 176/210/190 175/208/188 190/234/210 191/236/212
f 184/211/191 183/209/189 198/235/211 199/220/198
f 177/212/192 176/210/190 191/236/212 192/222/200
f 189/232/208 188/229/206 203/237/213 204/238/214
f 197/233/209 196/231/207 211/239/215 212/240/216
f 190/234/210 189/232/208 204/238/214 205/241/217
f 198/235/211 197/233/209 212/240/216 213/242/218
f 191/236/212 190/234/210 205/241/217 206/243/219
f 199/220/198 198/235/211 213/242/218 214/244/220
f 192/222/200 191/236/212 206/243/219 207/245/221
f 200/221/199 199/220/198 214/244/220 215/246/222
f 193/223/201 192/222/200 207/245/221 208/247/223
f 201/224/202 200/221/199 215/246/222 216/248/224
f 194/225/203 193/223/201 208/247/223 209/249/225
f 202/226/204 201/224/202 216/248/224 217/250/226
f 195/227/205 194/225/203 209/249/225 210/251/227
f 188/229/206 82/252/12 203/237/213
f 308/253/14 202/226/204 217/250/226
f 196/231/207 195/227/205 210/251/227 211/239/215
f 208/247/223 207/245/221 222/254/228 223/255/229
f 216/248/224 215/246/222 230/256/230 231/257/231
f 209/249/225 208/247/223 223/255/229 224/258/232
f 217/250/226 216/248/224 231/257/231 232/259/233
f 210/251/227 209/249/225 224/258/232 225/260/234
f 203/237/213 82/261/12 218/262/235
f 308/263/14 217/250/226 232/259/233
f 211/239/215 210/251/227 225/260/234 226/264/236
f 204/238/214 203/237/213 218/262/235 219/265/237
f 212/240/216 211/239/215 226/264/236 227/266/238
f 205/241/217 204/238/214 219/265/237 220/267/239
f 213/242/218 212/240/216 227/266/238 228/268/240
f 206/243/219 205/241/217 220/267/239 221/269/241
f 214/244/220 213/242/218 228/268/240 229/270/242
f 207/245/221 206/243/219 221/269/241 222/254/228
f 215/246/222 214/244/220 229/270/242 230/256/230
f 227/266/238 226/264/236 241/271/243 242/272/244
f 220/267/239 219/265/237 234/273/245 235/274/246
f 228/268/240 227/266/238 242/272/244 243/275/247
f 221/269/241 220/267/239 235/274/246 236/276/248
f 229/270/242 228/268/240 243/275/247 244/277/249
f 222/254/228 221/269/241 236/276/248 237/278/250
f 230/256/230 229/270/242 244/277/249 245/279/251
f 223/255/229 222/254/228 237/278/250 238/280/252
f 231/257/231 230/256/230 245/279/251 246/281/253
f 224/258/232 223/255/229 238/280/252 239/282/254
f 232/259/233 231/257/231 246/281/253 247/283/255
f 225/260/234 224/258/232 239/282/254 240/284/256
f 218/262/235 82/285/12 233/286/257
f 308/287/14 232/259/233 247/283/255
f 226/264/236 225/260/234 240/284/256 241/271/243
f 219/265/237 218/262/235 233/286/257 234/273/245
f 246/281/253 245/279/251 260/288/258 261/289/259
f 239/282/254 238/280/252 253/290/260 254/291/261
f 247/283/255 246/281/253 261/289/259 262/292/262
f 240/284/256 239/282/254 254/291/261 255/293/263
f 233/286/257 82/294/12 248/295/264
f 308/296/14 247/283/255 262/292/262
f 241/271/243 240/284/256 255/293/263 256/297/265
f 234/273/245 233/286/257 248/295/264 249/298/266
f 242/272/244 241/271/243 256/297/265 257/299/267
f 235/274/246 234/273/245 249/298/266 250/300/268
f 243/275/247 242/272/244 257/299/267 258/301/269
f 236/276/248 235/274/246 250/300/268 251/302/270
f 244/277/249 243/275/247 258/301/269 259/303/271
f 237/278/250 236/276/248 251/302/270 252/304/272
f 245/279/251 244/277/249 259/303/271 260/288/258
f 238/280/252 237/278/250 252/304/272 253/290/260
f 258/301/269 257/299/267 272/305/273 273/306/274
f 251/302/270 250/300/268 265/307/275 266/308/276
f 259/303/271 258/301/269 273/306/274 274/309/277
f 252/304/272 251/302/270 266/308/276 267/310/278
f 260/288/258 259/303/271 274/309/277 275/311/279
f 253/290/260 252/304/272 267/310/278 268/312/280
f 261/289/259 260/288/258 275/311/279 276/313/281
f 254/291/261 253/290/260 268/312/280 269/314/282
f 262/292/262 261/289/259 276/313/281 277/315/283
f 255/293/263 254/291/261 269/314/282 270/316/284
f 248/295/264 82/317/12 263/318/285
f 308/319/14 262/292/262 277/315/283
f 256/297/265 255/293/263 270/316/284 271/320/286
f 249/298/266 248/295/264 263/318/285 264/321/287
f 257/299/267 256/297/265 271/320/286 272/305/273
f 250/300/268 249/298/266 264/321/287 265/307/275
f 277/315/283 276/313/281 291/322/288 292/323/289
f 270/316/284 269/314/282 284/324/290 285/325/291
f 263/318/285 82/326/12 278/327/292
f 308/328/14 277/315/283 292/323/289
f 271/320/286 270/316/284 285/325/291 286/329/293
f 264/321/287 263/318/285 278/327/292 279/330/294
f 272/305/273 271/320/286 286/329/293 287/331/295
f 265/307/275 264/321/287 279/330/294 280/332/296
f 273/306/274 272/305/273 287/331/295 288/333/297
f 266/308/276 265/307/275 280/332/296 281/334/298
f 274/309/277 273/306/274 288/333/297 289/335/299
f 267/310/278 266/308/276 281/334/298 282/336/300
f 275/311/279 274/309/277 289/335/299 290/337/301
f 268/312/280 267/310/278 282/336/300 283/338/302
f 276/313/281 275/311/279 290/337/301 291/322/288
f 269/314/282 268/312/280 283/338/302 284/324/290
f 281/334/298 280/332/296 295/339/303 296/340/304
f 289/335/299 288/333/297 303/341/305 304/342/306
f 282/336/300 281/334/298 296/340/304 297/343/307
f 290/337/301 289/335/299 304/342/306 305/344/308
f 283/338/302 282/336/300 297/343/307 298/345/309
f 291/322/288 290/337/301 305/344/308 306/346/310
f 284/324/290 283/338/302 298/345/309 299/347/311
f 292/323/289 291/322/288 306/346/310 307/348/312
f 285/325/291 284/324/290 299/347/311 300/349/313
f 278/327/292 82/350/12 293/351/314
f 308/352/14 292/323/289 307/348/312
f 286/329/293 285/325/291 300/349/313 301/353/315
f 279/330/294 278/327/292 293/351/314 294/354/316
f 287/331/295 286/329/293 301/353/315 302/355/317
f 280/332/296 279/330/294 294/354/316 295/339/303
f 288/333/297 287/331/295 302/355/317 303/341/305
f 300/349/313 299/347/311 315/356/318 316/357/319
f 293/351/314 82/358/12 309/359/320
f 308/360/14 307/348/312 323/361/321
f 301/353/315 300/349/313 316/357/319 317/362/322
f 294/354/316 293/351/314 309/359/320 310/363/323
f 302/355/317 301/353/315 317/362/322 318/364/324
f 295/339/303 294/354/316 310/363/323 311/365/325
f 303/341/305 302/355/317 318/364/324 319/366/326
f 296/340/304 295/339/303 311/365/325 312/367/327
f 304/342/306 303/341/305 319/366/326 320/368/328
f 297/343/307 296/340/304 312/367/327 313/369/329
f 305/344/308 304/342/306 320/368/328 321/370/330
f 298/345/309 297/343/307 313/369/329 314/371/331
f 306/346/310 305/344/308 321/370/330 322/372/332
f 299/347/311 298/345/309 314/371/331 315/356/318
f 307/348/312 306/346/310 322/372/332 323/361/321
f 320/368/328 319/366/326 334/373/333 335/374/334
f 313/369/329 312/367/327 327/375/335 328/376/336
f 321/370/330 320/368/328 335/374/334 336/377/337
f 314/371/331 313/369/329 328/376/336 329/378/338
f 322/372/332 321/370/330 336/377/337 337/379/339
f 315/356/318 314/371/331 329/378/338 330/380/340
f 323/361/321 322/372/332 337/379/339 338/381/341
f 316/357/319 315/356/318 330/380/340 331/382/342
f 309/359/320 82/383/12 324/384/343
f 308/385/14 323/361/321 338/381/341
f 317/362/322 316/357/319 331/382/342 332/386/344
f 310/363/323 309/359/320 324/384/343 325/387/345
f 318/364/324 317/362/322 332/386/344 333/388/346
f 311/365/325 310/363/323 325/387/345 326/389/347
f 319/366/326 318/364/324 333/388/346 334/373/333
f 312/367/327 311/365/325 326/389/347 327/375/335
f 324/384/343 82/390/12 339/391/348
f 308/392/14 338/381/341 353/393/349
f 332/386/344 331/382/342 346/394/350 347/395/351
f 325/387/345 324/384/343 339/391/348 340/396/352
f 333/388/346 332/386/344 347/395/351 348/397/353
f 326/389/347 325/387/345 340/396/352 341/398/354
f 334/373/333 333/388/346 348/397/353 349/399/355
f 327/375/335 326/389/347 341/398/354 342/400/356
f 335/374/334 334/373/333 349/399/355 350/401/357
f 328/376/336 327/375/335 342/400/356 343/402/358
f 336/377/337 335/374/334 350/401/357 351/403/359
f 329/378/338 328/376/336 343/402/358 344/404/360
f 337/379/339 336/377/337 351/403/359 352/405/361
f 330/380/340 329/378/338 344/404/360 345/406/362
f 338/381/341 337/379/339 352/405/361 353/393/349
f 331/382/342 330/380/340 345/406/362 346/394/350
f 343/402/358 342/400/356 357/407/363 358/408/364
f 351/403/359 350/401/357 365/409/365 366/410/366
f 344/404/360 343/402/358 358/408/364 359/411/367
f 352/405/361 351/403/359 366/410/366 367/412/368
f 345/406/362 344/404/360 359/411/367 360/413/369
f 353/393/349 352/405/361 367/412/368 368/414/370
f 346/394/350 345/406/362 360/413/369 361/415/371
f 339/391/348 82/416/12 354/417/372
f 308/418/14 353/393/349 368/414/370
f 347/395/351 346/394/350 361/415/371 362/419/373
f 340/396/352 339/391/348 354/417/372 355/420/374
f 348/397/353 347/395/351 362/419/373 363/421/375
f 341/398/354 340/396/352 355/420/374 356/422/376
f 349/399/355 348/397/353 363/421/375 364/423/377
f 342/400/356 341/398/354 356/422/376 357/407/363
f 350/401/357 349/399/355 364/423/377 365/409/365
f 362/424/373 361/425/371 376/426/378 377/427/379
f 355/428/374 354/429/372 369/430/380 370/431/381
f 363/432/375 362/424/373 377/427/379 378/433/382
f 356/434/376 355/428/374 370/431/381 371/435/383
f 364/436/377 363/432/375 378/433/382 379/437/384
f 357/438/363 356/434/376 371/435/383 372/439/385
f 365/440/365 364/436/377 379/437/384 380/441/386
f 358/442/364 357/438/363 372/439/385 373/443/387
f 366/444/366 365/440/365 380/441/386 381/445/388
f 359/446/367 358/442/364 373/443/387 374/447/389
f 367/448/368 366/444/366 381/445/388 382/449/390
f 360/450/369 359/446/367 374/447/389 375/451/391
f 368/452/370 367/448/368 382/449/390 383/453/392
f 361/425/371 360/450/369 375/451/391 376/426/378
f 354/429/372 82/454/12 369/430/380
f 308/455/14 368/452/370 383/453/392
f 381/445/388 380/441/386 395/456/393 396/457/394
f 374/447/389 373/443/387 388/458/395 389/459/396
f 382/449/390 381/445/388 396/457/394 397/460/397
f 375/451/391 374/447/389 389/459/396 390/461/398
f 383/453/392 382/449/390 397/460/397 398/462/399
f 376/426/378 375/451/391 390/461/398 391/463/400
f 369/430/380 82/464/12 384/465/401
f 308/466/14 383/453/392 398/462/399
f 377/427/379 376/426/378 391/463/400 392/467/402
f 370/431/381 369/430/380 384/465/401 385/468/403
f 378/433/382 377/427/379 392/467/402 393/469/404
f 371/435/383 370/431/381 385/468/403 386/470/405
f 379/437/384 378/433/382 393/469/404 394/471/406
f 372/439/385 371/435/383 386/470/405 387/472/407
f 380/441/386 379/437/384 394/471/406 395/456/393
f 373/443/387 372/439/385 387/472/407 388/458/395
f 393/469/404 392/467/402 407/473/408 408/474/409
f 386/470/405 385/468/403 400/475/410 401/476/411
f 394/471/406 393/469/404 408/474/409 409/477/412
f 387/472/407 386/470/405 401/476/411 402/478/413
f 395/456/393 394/471/406 409/477/412 410/479/414
f 388/458/395 387/472/407 402/478/413 403/480/415
f 396/457/394 395/456/393 410/479/414 411/481/416
f 389/459/396 388/458/395 403/480/415 404/482/417
f 397/460/397 396/457/394 411/481/416 412/483/418
f 390/461/398 389/459/396 404/482/417 405/484/419
f 398/462/399 397/460/397 412/483/418 413/485/420
f 391/463/400 390/461/398 405/484/419 406/486/421
f 384/465/401 82/487/12 399/488/422
f 308/489/14 398/462/399 413/485/420
f 392/467/402 391/463/400 406/486/421 407/473/408
f 385/468/403 384/465/401 399/488/422 400/475/410
f 412/483/418 411/481/416 426/490/423 427/491/424
f 405/484/419 404/482/417 419/492/425 420/493/426
f 413/485/420 412/483/418 427/491/424 428/494/427
f 406/486/421 405/484/419 420/493/426 421/495/428
f 399/488/422 82/496/12 414/497/429
f 308/498/14 413/485/420 428/494/427
f 407/473/408 406/486/421 421/495/428 422/499/430
f 400/475/410 399/488/422 414/497/429 415/500/431
f 408/474/409 407/473/408 422/499/430 423/501/432
f 401/476/411 400/475/410 415/500/431 416/502/433
f 409/477/412 408/474/409 423/501/432 424/503/434
f 402/478/413 401/476/411 416/502/433 417/504/435
f 410/479/414 409/477/412 424/503/434 425/505/436
f 403/480/415 402/478/413 417/504/435 418/506/437
f 411/481/416 410/479/414 425/505/436 426/490/423
f 404/482/417 403/480/415 418/506/437 419/492/425
f 416/502/433 415/500/431 430/507/438 431/508/439
f 424/503/434 423/501/432 438/509/440 439/510/441
f 417/504/435 416/502/433 431/508/439 432/511/442
f 425/505/436 424/503/434 439/510/441 440/512/443
f 418/506/437 417/504/435 432/511/442 433/513/444
f 426/490/423 425/505/436 440/512/443 441/514/445
f 419/492/425 418/506/437 433/513/444 434/515/446
f 427/491/424 426/490/423 441/514/445 442/516/447
f 420/493/426 419/492/425 434/515/446 435/517/448
f 428/494/427 427/491/424 442/516/447 443/518/449
f 421/495/428 420/493/426 435/517/448 436/519/450
f 414/497/429 82/520/12 429/521/451
f 308/522/14 428/494/427 443/518/449
f 422/499/430 421/495/428 436/519/450 437/523/452
f 415/500/431 414/497/429 429/521/451 430/507/438
f 423/501/432 422/499/430 437/523/452 438/509/440
f 435/517/448 434/515/446 449/524/453 450/525/454
f 443/518/449 442/516/447 457/526/455 458/527/456
f 436/519/450 435/517/448 450/525/454 451/528/457
f 429/521/451 82/529/12 444/530/458
f 308/531/14 443/518/449 458/527/456
f 437/523/452 436/519/450 451/528/457 452/532/459
f 430/507/438 429/521/451 444/530/458 445/533/460
f 438/509/440 437/523/452 452/532/459 453/534/461
f 431/508/439 430/507/438 445/533/460 446/535/462
f 439/510/441 438/509/440 453/534/461 454/536/463
f 432/511/442 431/508/439 446/535/462 447/537/464
f 440/512/443 439/510/441 454/536/463 455/538/465
f 433/513/444 432/511/442 447/537/464 448/539/466
f 441/514/445 440/512/443 455/538/465 456/540/467
f 434/515/446 433/513/444 448/539/466 449/524/453
f 442/516/447 441/514/445 456/540/467 457/526/455
f 454/536/463 453/534/461 468/541/468 469/542/469
f 447/537/464 446/535/462 461/543/470 462/544/471
f 455/538/465 454/536/463 469/542/469 470/545/472
f 448/539/466 447/537/464 462/544/471 463/546/473
f 456/540/467 455/538/465 470/545/472 471/547/474
f 449/524/453 448/539/466 463/546/473 464/548/475
f 457/526/455 456/540/467 471/547/474 472/549/476
f 450/525/454 449/524/453 464/548/475 465/550/477
f 458/527/456 457/526/455 472/549/476 473/551/478
f 451/528/457 450/525/454 465/550/477 466/552/479
f 444/530/458 82/553/12 459/554/480
f 308/555/14 458/527/456 473/551/478
f 452/532/459 451/528/457 466/552/479 467/556/481
f 445/533/460 444/530/458 459/554/480 460/557/482
f 453/534/461 452/532/459 467/556/481 468/541/468
f 446/535/462 445/533/460 460/557/482 461/543/470
f 473/551/478 472/549/476 481/6/6 482/5/5
f 466/552/479 465/550/477 3/1/1 4/9/9
f 459/554/480 82/558/12 474/11/11
f 308/559/14 473/551/478 482/5/5
f 467/556/481 466/552/479 4/9/9 5/15/15
f 460/557/482 459/554/480 474/11/11 475/17/17
f 468/541/468 467/556/481 5/15/15 478/19/19
f 461/543/470 460/557/482 475/17/17 1/21/21
f 469/542/469 468/541/468 478/19/19 6/23/23
f 462/544/471 461/543/470 1/21/21 476/25/25
f 470/545/472 469/542/469 6/23/23 479/27/27
f 463/546/473 462/544/471 476/25/25 2/29/29
f 471/547/474 470/545/472 479/27/27 480/31/31
f 464/548/475 463/546/473 2/29/29 477/2/2
f 472/549/476 471/547/474 480/31/31 481/6/6
f 465/550/477 464/548/475 477/2/2 3/1/1
